<svg width="406" height="46" viewBox="0 0 406 46" fill="none" xmlns="http://www.w3.org/2000/svg">
<path d="M19.39 34.36C17.71 34.36 16.1 34.14 14.56 33.7C13.02 33.24 11.78 32.65 10.84 31.93L12.49 28.27C13.39 28.91 14.45 29.44 15.67 29.86C16.91 30.26 18.16 30.46 19.42 30.46C20.38 30.46 21.15 30.37 21.73 30.19C22.33 29.99 22.77 29.72 23.05 29.38C23.33 29.04 23.47 28.65 23.47 28.21C23.47 27.65 23.25 27.21 22.81 26.89C22.37 26.55 21.79 26.28 21.07 26.08C20.35 25.86 19.55 25.66 18.67 25.48C17.81 25.28 16.94 25.04 16.06 24.76C15.2 24.48 14.41 24.12 13.69 23.68C12.97 23.24 12.38 22.66 11.92 21.94C11.48 21.22 11.26 20.3 11.26 19.18C11.26 17.98 11.58 16.89 12.22 15.91C12.88 14.91 13.86 14.12 15.16 13.54C16.48 12.94 18.13 12.64 20.11 12.64C21.43 12.64 22.73 12.8 24.01 13.12C25.29 13.42 26.42 13.88 27.4 14.5L25.9 18.19C24.92 17.63 23.94 17.22 22.96 16.96C21.98 16.68 21.02 16.54 20.08 16.54C19.14 16.54 18.37 16.65 17.77 16.87C17.17 17.09 16.74 17.38 16.48 17.74C16.22 18.08 16.09 18.48 16.09 18.94C16.09 19.48 16.31 19.92 16.75 20.26C17.19 20.58 17.77 20.84 18.49 21.04C19.21 21.24 20 21.44 20.86 21.64C21.74 21.84 22.61 22.07 23.47 22.33C24.35 22.59 25.15 22.94 25.87 23.38C26.59 23.82 27.17 24.4 27.61 25.12C28.07 25.84 28.3 26.75 28.3 27.85C28.3 29.03 27.97 30.11 27.31 31.09C26.65 32.07 25.66 32.86 24.34 33.46C23.04 34.06 21.39 34.36 19.39 34.36ZM31.2609 34L40.6209 13H45.4209L54.8109 34H49.7109L42.0309 15.46H43.9509L36.2409 34H31.2609ZM35.9409 29.5L37.2309 25.81H48.0309L49.3509 29.5H35.9409ZM59.3896 34V13H68.4796C70.3596 13 71.9796 13.31 73.3396 13.93C74.6996 14.53 75.7496 15.4 76.4896 16.54C77.2296 17.68 77.5996 19.04 77.5996 20.62C77.5996 22.18 77.2296 23.53 76.4896 24.67C75.7496 25.79 74.6996 26.65 73.3396 27.25C71.9796 27.85 70.3596 28.15 68.4796 28.15H62.0896L64.2496 26.02V34H59.3896ZM72.7396 34L67.4896 26.38H72.6796L77.9896 34H72.7396ZM64.2496 26.56L62.0896 24.28H68.2096C69.7096 24.28 70.8296 23.96 71.5696 23.32C72.3096 22.66 72.6796 21.76 72.6796 20.62C72.6796 19.46 72.3096 18.56 71.5696 17.92C70.8296 17.28 69.7096 16.96 68.2096 16.96H62.0896L64.2496 14.65V26.56ZM87.9072 34V16.96H81.1872V13H99.4872V16.96H92.7672V34H87.9072ZM118.902 13H123.762V34H118.902V13ZM109.362 34H104.502V13H109.362V34ZM119.262 25.39H109.002V21.28H119.262V25.39ZM128.371 34L137.731 13H142.531L151.921 34H146.821L139.141 15.46H141.061L133.351 34H128.371ZM133.051 29.5L134.341 25.81H145.141L146.461 29.5H133.051ZM160.849 29.2L160.579 23.59L170.629 13H176.029L166.969 22.75L164.269 25.63L160.849 29.2ZM156.499 34V13H161.329V34H156.499ZM170.869 34L163.399 24.85L166.579 21.4L176.539 34H170.869ZM192.002 34V13H201.542C203.822 13 205.832 13.44 207.572 14.32C209.312 15.18 210.672 16.39 211.652 17.95C212.632 19.51 213.122 21.36 213.122 23.5C213.122 25.62 212.632 27.47 211.652 29.05C210.672 30.61 209.312 31.83 207.572 32.71C205.832 33.57 203.822 34 201.542 34H192.002ZM196.862 30.01H201.302C202.702 30.01 203.912 29.75 204.932 29.23C205.972 28.69 206.772 27.93 207.332 26.95C207.912 25.97 208.202 24.82 208.202 23.5C208.202 22.16 207.912 21.01 207.332 20.05C206.772 19.07 205.972 18.32 204.932 17.8C203.912 17.26 202.702 16.99 201.302 16.99H196.862V30.01ZM233.588 13H238.448V34H233.588V13ZM224.048 34H219.188V13H224.048V34ZM233.948 25.39H223.688V21.28H233.948V25.39ZM243.056 34L252.416 13H257.216L266.606 34H261.506L253.826 15.46H255.746L248.036 34H243.056ZM247.736 29.5L249.026 25.81H259.826L261.146 29.5H247.736ZM278.085 34.36C276.405 34.36 274.795 34.14 273.255 33.7C271.715 33.24 270.475 32.65 269.535 31.93L271.185 28.27C272.085 28.91 273.145 29.44 274.365 29.86C275.605 30.26 276.855 30.46 278.115 30.46C279.075 30.46 279.845 30.37 280.425 30.19C281.025 29.99 281.465 29.72 281.745 29.38C282.025 29.04 282.165 28.65 282.165 28.21C282.165 27.65 281.945 27.21 281.505 26.89C281.065 26.55 280.485 26.28 279.765 26.08C279.045 25.86 278.245 25.66 277.365 25.48C276.505 25.28 275.635 25.04 274.755 24.76C273.895 24.48 273.105 24.12 272.385 23.68C271.665 23.24 271.075 22.66 270.615 21.94C270.175 21.22 269.955 20.3 269.955 19.18C269.955 17.98 270.275 16.89 270.915 15.91C271.575 14.91 272.555 14.12 273.855 13.54C275.175 12.94 276.825 12.64 278.805 12.64C280.125 12.64 281.425 12.8 282.705 13.12C283.985 13.42 285.115 13.88 286.095 14.5L284.595 18.19C283.615 17.63 282.635 17.22 281.655 16.96C280.675 16.68 279.715 16.54 278.775 16.54C277.835 16.54 277.065 16.65 276.465 16.87C275.865 17.09 275.435 17.38 275.175 17.74C274.915 18.08 274.785 18.48 274.785 18.94C274.785 19.48 275.005 19.92 275.445 20.26C275.885 20.58 276.465 20.84 277.185 21.04C277.905 21.24 278.695 21.44 279.555 21.64C280.435 21.84 281.305 22.07 282.165 22.33C283.045 22.59 283.845 22.94 284.565 23.38C285.285 23.82 285.865 24.4 286.305 25.12C286.765 25.84 286.995 26.75 286.995 27.85C286.995 29.03 286.665 30.11 286.005 31.09C285.345 32.07 284.355 32.86 283.035 33.46C281.735 34.06 280.085 34.36 278.085 34.36ZM292.716 34V13H296.736L305.676 27.82H303.546L312.336 13H316.326L316.386 34H311.826L311.796 19.99H312.636L305.616 31.78H303.426L296.256 19.99H297.276V34H292.716ZM321.008 34L330.368 13H335.168L344.558 34H339.458L331.778 15.46H333.698L325.988 34H321.008ZM325.688 29.5L326.978 25.81H337.778L339.098 29.5H325.688ZM349.137 34V13H353.157L365.547 28.12H363.597V13H368.397V34H364.407L351.987 18.88H353.937V34H349.137ZM373.005 34L382.365 13H387.165L396.555 34H391.455L383.775 15.46H385.695L377.985 34H373.005ZM377.685 29.5L378.975 25.81H389.775L391.095 29.5H377.685Z" fill="white"/>
<path d="M2 40L2 2" stroke="#FF204E" stroke-width="3" stroke-linecap="round"/>
<path d="M52 2L2 2" stroke="#FF204E" stroke-width="3" stroke-linecap="round"/>
<path d="M404 9V44" stroke="#FF204E" stroke-width="3" stroke-linecap="round"/>
<path d="M354 44L404 44" stroke="#FF204E" stroke-width="3" stroke-linecap="round"/>
</svg>
